<svg width="1000" height="766" viewBox="0 0 1000 766" fill="none" xmlns="http://www.w3.org/2000/svg">
<path d="M0 0H1000V766H0V0Z" fill="#E6E6E6"/>
<g clip-path="url(#clip0)">
<path d="M295.803 451.152C295.803 417.281 323.427 336.907 357.502 336.907C391.578 336.907 419.202 417.281 419.202 451.152C419.191 467.422 412.686 483.021 401.117 494.522C389.547 506.023 373.859 512.483 357.502 512.483C341.145 512.483 325.458 506.023 313.888 494.522C302.318 483.021 295.813 467.422 295.803 451.152Z" fill="white"/>
<path d="M357.502 600.358C357.368 600.358 357.239 600.304 357.144 600.21C357.049 600.115 356.995 599.987 356.995 599.853V388.412C356.995 388.279 357.049 388.15 357.144 388.056C357.239 387.961 357.368 387.908 357.502 387.908C357.637 387.908 357.766 387.961 357.861 388.056C357.956 388.15 358.01 388.279 358.01 388.412V599.853C358.01 599.987 357.956 600.115 357.861 600.21C357.766 600.304 357.637 600.358 357.502 600.358Z" fill="#E6E6E6"/>
<path d="M357.503 429.232C357.436 429.232 357.37 429.219 357.308 429.194C357.247 429.169 357.191 429.131 357.144 429.085L332.723 404.811C332.676 404.764 332.638 404.709 332.612 404.647C332.586 404.586 332.572 404.52 332.572 404.453C332.572 404.387 332.585 404.321 332.61 404.259C332.636 404.197 332.673 404.141 332.72 404.094C332.768 404.047 332.824 404.01 332.886 403.985C332.948 403.959 333.014 403.946 333.081 403.947C333.148 403.947 333.215 403.961 333.276 403.987C333.338 404.012 333.394 404.05 333.441 404.098L357.861 428.371C357.932 428.442 357.98 428.532 358 428.63C358.02 428.728 358.01 428.829 357.971 428.921C357.933 429.013 357.868 429.092 357.784 429.147C357.701 429.203 357.603 429.232 357.503 429.232Z" fill="#E6E6E6"/>
<path d="M357.502 471.255C357.402 471.255 357.304 471.225 357.221 471.17C357.137 471.115 357.072 471.036 357.034 470.944C356.995 470.852 356.985 470.75 357.005 470.652C357.025 470.554 357.073 470.465 357.144 470.394L398.04 429.743C398.136 429.65 398.264 429.598 398.398 429.598C398.531 429.599 398.66 429.652 398.754 429.746C398.849 429.84 398.902 429.967 398.903 430.1C398.903 430.233 398.851 430.361 398.758 430.456L357.861 471.107C357.814 471.154 357.758 471.191 357.697 471.217C357.635 471.242 357.569 471.255 357.502 471.255Z" fill="#E6E6E6"/>
<path d="M320.798 613.568C320.886 613.635 320.979 613.696 321.068 613.762H396.709C398.191 607.793 398.714 601.818 396.5 596.629C393.346 589.234 384.011 584.619 376.589 587.794C374.831 588.567 373.299 589.771 372.138 591.295C369.237 586.134 364.035 582.243 358.029 582.248C350.506 582.253 344.25 588.369 342.209 595.433C338.922 589.918 332.428 586.063 326.082 587.721C315.467 590.494 312.114 606.896 320.798 613.568Z" fill="white"/>
<path d="M513.695 472.152C512.998 472.334 512.349 472.666 511.794 473.124C511.24 473.583 510.793 474.157 510.486 474.806C510.178 475.454 510.018 476.162 510.015 476.88C510.013 477.597 510.168 478.306 510.471 478.957L497.854 491.059L506.742 493.041L517.36 481.245C518.426 480.666 519.242 479.719 519.652 478.583C520.063 477.446 520.04 476.2 519.588 475.079C519.136 473.958 518.287 473.041 517.201 472.502C516.115 471.962 514.867 471.838 513.695 472.152Z" fill="#FFB8B8"/>
<path d="M495.953 503.989L511.517 489.465C511.732 489.264 511.905 489.023 512.024 488.755C512.144 488.488 512.208 488.199 512.214 487.906C512.22 487.613 512.166 487.322 512.057 487.049C511.948 486.777 511.785 486.53 511.578 486.321L508.399 483.12C508.022 482.74 507.518 482.51 506.982 482.473C506.447 482.436 505.916 482.594 505.489 482.918L492.446 492.833L484.308 473.203C483.987 472.428 483.509 471.727 482.905 471.143C482.301 470.56 481.583 470.105 480.795 469.809C480.007 469.512 479.167 469.379 478.325 469.418C477.484 469.458 476.66 469.668 475.903 470.037C474.711 470.611 473.738 471.554 473.13 472.724C472.523 473.895 472.313 475.23 472.533 476.529C474.01 485.458 482.956 497.262 488.157 503.504C488.867 504.354 489.825 504.965 490.899 505.251C491.972 505.538 493.109 505.487 494.152 505.104C494.821 504.855 495.433 504.476 495.953 503.989Z" fill="#6E58DF"/>
<path d="M504.687 489.899L516.146 473.367C516.293 473.154 516.35 472.892 516.303 472.637C516.256 472.383 516.109 472.157 515.895 472.01L515.435 471.695C515.329 471.622 515.209 471.571 515.083 471.544C514.957 471.517 514.827 471.515 514.701 471.538C514.574 471.561 514.453 471.609 514.345 471.679C514.237 471.749 514.143 471.839 514.07 471.944L502.611 488.476C502.538 488.582 502.487 488.701 502.46 488.826C502.433 488.951 502.431 489.08 502.454 489.207C502.477 489.333 502.525 489.453 502.595 489.56C502.665 489.668 502.756 489.761 502.862 489.833L503.322 490.149C503.537 490.296 503.801 490.352 504.057 490.305C504.312 490.258 504.539 490.112 504.687 489.899Z" fill="white"/>
<path d="M507.89 490.022L517.4 476.302C517.805 475.716 517.96 474.994 517.831 474.294C517.702 473.594 517.299 472.974 516.71 472.57L515.741 471.905L503.169 490.044L504.137 490.709H504.138C504.727 491.112 505.453 491.266 506.156 491.138C506.86 491.009 507.483 490.608 507.89 490.022Z" fill="#3F3D56"/>
<path d="M506.74 608.446L512.713 607.76L511.922 584.627L504.08 585.527L506.74 608.446Z" fill="#FFB8B8"/>
<path d="M505.884 614.381L525.146 612.169L525.118 611.927C525.004 610.948 524.698 610 524.216 609.139C523.734 608.277 523.087 607.519 522.31 606.906C521.534 606.293 520.644 605.839 519.691 605.569C518.737 605.298 517.74 605.217 516.756 605.33L516.755 605.33L504.991 606.681L505.884 614.381Z" fill="#2F2E41"/>
<path d="M437.274 604.053L443.02 605.818L452.6 584.615L444.119 582.009L437.274 604.053Z" fill="#FFB8B8"/>
<path d="M434.088 609.142L452.614 614.834L452.687 614.601C452.979 613.659 453.082 612.669 452.99 611.688C452.898 610.706 452.613 609.752 452.15 608.88C451.687 608.009 451.056 607.236 450.293 606.607C449.53 605.978 448.65 605.504 447.703 605.213L447.703 605.213L436.388 601.737L434.088 609.142Z" fill="#2F2E41"/>
<path d="M513.409 603.113C514.016 602.926 514.526 602.512 514.831 601.958C515.136 601.405 515.213 600.754 515.045 600.145L511.444 558.915C511.278 557.034 510.683 555.215 509.705 553.597L487.908 517.616L468.403 521.102L468.277 521.154C458.797 526.929 450.38 554.932 442.241 582.013C440.975 586.224 439.666 590.579 438.389 594.74C438.151 595.335 438.157 595.998 438.404 596.588C438.651 597.178 439.12 597.649 439.712 597.9L445.618 600.373C446.177 600.609 446.805 600.629 447.379 600.43C447.953 600.23 448.432 599.825 448.722 599.294L479.084 544.004C479.122 543.935 479.176 543.876 479.242 543.832C479.308 543.788 479.383 543.761 479.462 543.752C479.54 543.743 479.619 543.752 479.693 543.78C479.766 543.809 479.831 543.855 479.882 543.914L497.503 563.747L503.979 601.544L504.005 601.626C504.239 602.166 504.661 602.604 505.194 602.859C505.726 603.115 506.334 603.17 506.905 603.015L513.256 603.135L513.296 603.135L513.409 603.113Z" fill="#2F2E41"/>
<path d="M488.963 521.559L489.086 521.52L489.123 521.397C489.214 521.096 498.13 491.087 490.096 471.957L490.088 471.939C489.852 471.484 484.248 460.773 477.736 459.701L477.562 459.673L475.446 463.609C474.781 464.273 463.325 476.105 468.524 496.442C468.057 498.11 461.731 521.005 465.171 524.427C465.945 525.197 467.501 525.498 469.464 525.498C476.372 525.498 488.319 521.762 488.963 521.559Z" fill="#6E58DF"/>
<path d="M479.079 455.95C470.681 455.95 463.873 449.179 463.873 440.826C463.873 432.473 470.681 425.702 479.079 425.702C487.476 425.702 494.284 432.473 494.284 440.826C494.284 449.179 487.476 455.95 479.079 455.95Z" fill="#2F2E41"/>
<path d="M485.119 455.878C478.465 455.878 473.072 450.513 473.072 443.895C473.072 437.278 478.465 431.913 485.119 431.913C491.772 431.913 497.166 437.278 497.166 443.895C497.166 450.513 491.772 455.878 485.119 455.878Z" fill="#FFB8B8"/>
<path d="M477.367 455.535C478.466 455.923 479.814 456.265 480.679 455.461C481.523 454.676 481.369 453.24 480.872 452.183C480.374 451.125 479.603 450.184 479.366 449.033C479.027 447.384 479.904 445.67 481.155 444.595C482.406 443.519 483.981 442.954 485.519 442.41L493.952 439.429C496.039 438.691 498.289 437.824 499.457 435.881C501.147 433.071 499.602 429.053 496.829 427.413C494.057 425.773 490.555 426.079 487.563 427.232C485.909 427.87 484.335 428.749 482.624 429.198C479.248 430.084 475.408 429.289 472.441 431.183C469.858 432.831 468.66 436.195 468.747 439.342C468.834 442.489 469.999 445.487 471.228 448.365C471.959 450.077 472.74 451.81 473.978 453.172C475.216 454.534 477.006 455.486 478.793 455.236L477.367 455.535Z" fill="#2F2E41"/>
<path d="M466.326 443.266C460.908 443.266 456.516 438.897 456.516 433.508C456.516 428.119 460.908 423.75 466.326 423.75C471.744 423.75 476.136 428.119 476.136 433.508C476.136 438.897 471.744 443.266 466.326 443.266Z" fill="#2F2E41"/>
<path d="M482.512 447.656C482.512 447.479 482.464 447.305 482.373 447.154C482.281 447.002 482.15 446.877 481.993 446.794C481.835 446.711 481.659 446.672 481.481 446.681C481.303 446.69 481.131 446.747 480.983 446.846C480.836 446.945 480.718 447.082 480.642 447.242C480.567 447.403 480.537 447.58 480.555 447.757C480.574 447.933 480.64 448.101 480.747 448.242C480.854 448.384 480.998 448.493 481.163 448.56V450.706C481.163 450.803 481.202 450.896 481.271 450.964C481.34 451.033 481.434 451.072 481.531 451.072C481.629 451.072 481.722 451.033 481.791 450.964C481.86 450.896 481.899 450.803 481.899 450.706V448.56C482.08 448.487 482.235 448.362 482.344 448.201C482.454 448.04 482.512 447.851 482.512 447.656Z" fill="white"/>
<path d="M513.098 482.394C512.381 482.323 511.656 482.409 510.976 482.646C510.295 482.884 509.676 483.267 509.16 483.769C508.645 484.27 508.246 484.878 507.992 485.549C507.739 486.221 507.636 486.939 507.692 487.654L491.625 494.624L499.261 499.563L513.348 492.187C514.549 492.015 515.645 491.409 516.428 490.487C517.211 489.564 517.627 488.387 517.596 487.18C517.565 485.973 517.09 484.819 516.262 483.937C515.433 483.055 514.307 482.506 513.098 482.394V482.394Z" fill="#FFB8B8"/>
<path d="M485.313 506.083L504.99 497.866C505.262 497.753 505.508 497.586 505.714 497.377C505.92 497.167 506.082 496.919 506.19 496.646C506.298 496.374 506.35 496.082 506.343 495.789C506.336 495.496 506.27 495.208 506.149 494.941L504.292 490.838C504.071 490.351 503.679 489.961 503.19 489.741C502.701 489.52 502.148 489.484 501.634 489.64L485.934 494.411L485.186 473.19C485.156 472.353 484.954 471.531 484.593 470.774C484.231 470.018 483.717 469.343 483.083 468.792C482.448 468.24 481.707 467.824 480.904 467.57C480.102 467.315 479.256 467.226 478.418 467.309C477.099 467.434 475.857 467.981 474.877 468.867C473.897 469.754 473.233 470.932 472.984 472.226C471.239 481.108 475.488 495.273 478.175 502.926C478.543 503.97 479.227 504.874 480.133 505.515C481.039 506.155 482.122 506.501 483.234 506.504C483.948 506.503 484.655 506.36 485.313 506.083Z" fill="#6E58DF"/>
<path d="M570.132 615H293.49C293.36 615 293.235 614.949 293.143 614.857C293.051 614.766 293 614.641 293 614.512C293 614.383 293.051 614.259 293.143 614.167C293.235 614.076 293.36 614.024 293.49 614.024H570.132C570.262 614.024 570.386 614.076 570.478 614.167C570.57 614.259 570.622 614.383 570.622 614.512C570.622 614.641 570.57 614.766 570.478 614.857C570.386 614.949 570.262 615 570.132 615Z" fill="#CCCCCC"/>
<path d="M619.361 509.755C619.361 492.124 633.741 450.286 651.479 450.286C669.216 450.286 683.596 492.124 683.596 509.755C683.591 518.225 680.205 526.346 674.183 532.333C668.16 538.32 659.994 541.684 651.479 541.684C642.964 541.684 634.797 538.32 628.775 532.333C622.752 526.346 619.366 518.225 619.361 509.755Z" fill="white"/>
<path d="M651.478 585.416C651.432 585.416 651.386 585.407 651.343 585.389C651.301 585.372 651.262 585.346 651.229 585.313C651.196 585.281 651.17 585.242 651.153 585.199C651.135 585.157 651.126 585.111 651.126 585.065V461.978C651.126 461.885 651.163 461.796 651.229 461.731C651.296 461.665 651.385 461.628 651.478 461.628C651.572 461.628 651.661 461.665 651.727 461.731C651.793 461.796 651.831 461.885 651.831 461.978V585.065C651.831 585.111 651.822 585.157 651.804 585.199C651.786 585.242 651.76 585.281 651.728 585.313C651.695 585.346 651.656 585.372 651.613 585.389C651.571 585.407 651.525 585.416 651.478 585.416Z" fill="#E6E6E6"/>
<path d="M651.478 489.868C651.432 489.868 651.386 489.859 651.343 489.842C651.301 489.824 651.262 489.798 651.229 489.766L634.252 472.891C634.186 472.825 634.149 472.736 634.149 472.643C634.149 472.55 634.186 472.46 634.252 472.395C634.318 472.329 634.408 472.292 634.502 472.292C634.595 472.292 634.685 472.329 634.751 472.395L651.728 489.27C651.777 489.319 651.811 489.381 651.824 489.449C651.838 489.517 651.831 489.588 651.804 489.652C651.777 489.716 651.732 489.771 651.674 489.809C651.616 489.848 651.548 489.868 651.478 489.868Z" fill="#E6E6E6"/>
<path d="M651.478 519.082C651.409 519.082 651.341 519.062 651.283 519.023C651.225 518.985 651.179 518.93 651.153 518.866C651.126 518.802 651.119 518.731 651.133 518.663C651.146 518.595 651.18 518.533 651.229 518.484L672.303 498.029C672.369 497.964 672.459 497.927 672.552 497.927C672.646 497.926 672.735 497.963 672.801 498.029C672.868 498.095 672.905 498.184 672.905 498.277C672.905 498.37 672.868 498.459 672.802 498.525L651.728 518.979C651.695 519.012 651.656 519.038 651.613 519.056C651.571 519.073 651.525 519.082 651.478 519.082Z" fill="#E6E6E6"/>
<path d="M625.962 594.6C626.023 594.647 626.088 594.689 626.15 594.735H678.735C679.765 590.585 680.129 586.431 678.59 582.824C676.397 577.683 669.907 574.474 664.748 576.682C663.525 577.219 662.461 578.056 661.653 579.116C659.637 575.528 656.02 572.823 651.845 572.826C646.615 572.83 642.266 577.081 640.847 581.992C638.561 578.158 634.047 575.479 629.635 576.631C622.256 578.559 619.925 589.962 625.962 594.6Z" fill="#F2F2F2"/>
<path d="M705.51 595.485H597.109C596.979 595.485 596.854 595.433 596.762 595.342C596.67 595.25 596.619 595.126 596.619 594.997C596.619 594.868 596.67 594.743 596.762 594.652C596.854 594.56 596.979 594.509 597.109 594.509H705.51C705.64 594.509 705.764 594.56 705.856 594.652C705.948 594.743 706 594.868 706 594.997C706 595.126 705.948 595.25 705.856 595.342C705.764 595.433 705.64 595.485 705.51 595.485Z" fill="#CCCCCC"/>
<path d="M516.894 432.455H687.587C689.733 432.453 691.79 431.604 693.308 430.095C694.825 428.586 695.678 426.539 695.681 424.405V338.05C695.678 335.916 694.825 333.87 693.308 332.36C691.79 330.851 689.733 330.002 687.587 330H516.894C514.748 330.002 512.691 330.851 511.174 332.36C509.657 333.87 508.803 335.916 508.801 338.05V424.405C508.803 426.539 509.657 428.586 511.174 430.095C512.691 431.604 514.748 432.453 516.894 432.455Z" fill="#E6E6E6"/>
<path d="M685.625 426.601H518.855C517.75 426.599 516.69 426.162 515.909 425.385C515.127 424.607 514.687 423.553 514.686 422.454V340.001C514.687 338.902 515.127 337.848 515.909 337.07C516.69 336.293 517.75 335.856 518.855 335.854H685.625C686.73 335.856 687.79 336.293 688.572 337.07C689.353 337.848 689.793 338.902 689.794 340.001V422.454C689.793 423.553 689.353 424.607 688.572 425.385C687.79 426.162 686.73 426.599 685.625 426.601Z" fill="white"/>
<path d="M528.514 447.418L547.27 428.762L523.224 429.367V445.238C523.217 445.85 523.396 446.448 523.738 446.956C524.079 447.465 524.567 447.858 525.137 448.086C525.518 448.245 525.928 448.328 526.342 448.329C526.747 448.327 527.147 448.246 527.52 448.09C527.892 447.934 528.23 447.705 528.514 447.418Z" fill="#E6E6E6"/>
<path d="M665.32 377.53H580.954C579.914 377.53 578.915 377.119 578.18 376.387C577.444 375.655 577.03 374.662 577.03 373.627C577.03 372.592 577.444 371.599 578.18 370.867C578.915 370.135 579.914 369.724 580.954 369.724H665.32C666.361 369.724 667.359 370.135 668.095 370.867C668.831 371.599 669.244 372.592 669.244 373.627C669.244 374.662 668.831 375.655 668.095 376.387C667.359 377.119 666.361 377.53 665.32 377.53Z" fill="#CCCCCC"/>
<path d="M637.852 360.942H580.954C579.914 360.942 578.915 360.531 578.18 359.799C577.444 359.067 577.03 358.074 577.03 357.039C577.03 356.004 577.444 355.011 578.18 354.279C578.915 353.547 579.914 353.136 580.954 353.136H637.852C638.893 353.136 639.891 353.547 640.627 354.279C641.363 355.011 641.776 356.004 641.776 357.039C641.776 358.074 641.363 359.067 640.627 359.799C639.891 360.531 638.893 360.942 637.852 360.942Z" fill="#CCCCCC"/>
<path d="M546.03 377.53C552.802 377.53 558.293 372.069 558.293 365.333C558.293 358.597 552.802 353.136 546.03 353.136C539.258 353.136 533.768 358.597 533.768 365.333C533.768 372.069 539.258 377.53 546.03 377.53Z" fill="#6E58DF"/>
<path d="M639.32 409.319C641.488 409.319 643.244 407.572 643.244 405.416C643.244 403.261 641.488 401.513 639.32 401.513C637.153 401.513 635.396 403.261 635.396 405.416C635.396 407.572 637.153 409.319 639.32 409.319Z" fill="#E6E6E6"/>
<path d="M653.054 409.319C655.222 409.319 656.978 407.572 656.978 405.416C656.978 403.261 655.222 401.513 653.054 401.513C650.887 401.513 649.13 403.261 649.13 405.416C649.13 407.572 650.887 409.319 653.054 409.319Z" fill="#E6E6E6"/>
<path d="M666.789 409.319C668.956 409.319 670.713 407.572 670.713 405.416C670.713 403.261 668.956 401.513 666.789 401.513C664.622 401.513 662.865 403.261 662.865 405.416C662.865 407.572 664.622 409.319 666.789 409.319Z" fill="#E6E6E6"/>
</g>
<path d="M349.521 202.92H371.265V213H335.553V203.64L357.153 172.536H335.553V162.456H371.265V171.816L349.521 202.92Z" fill="#6E58DF"/>
<path d="M422.508 221.64L416.028 212.928C414.108 213.312 412.236 213.504 410.412 213.504C405.66 213.504 401.292 212.4 397.308 210.192C393.372 207.984 390.228 204.912 387.876 200.976C385.572 196.992 384.42 192.528 384.42 187.584C384.42 182.64 385.572 178.2 387.876 174.264C390.228 170.328 393.372 167.256 397.308 165.048C401.292 162.84 405.66 161.736 410.412 161.736C415.164 161.736 419.508 162.84 423.444 165.048C427.428 167.256 430.548 170.328 432.804 174.264C435.108 178.2 436.26 182.64 436.26 187.584C436.26 191.904 435.372 195.864 433.596 199.464C431.868 203.016 429.444 205.968 426.324 208.32L437.412 221.64H422.508ZM397.02 187.584C397.02 192.048 398.22 195.624 400.62 198.312C403.068 200.952 406.332 202.272 410.412 202.272C414.444 202.272 417.66 200.928 420.06 198.24C422.508 195.552 423.732 192 423.732 187.584C423.732 183.12 422.508 179.568 420.06 176.928C417.66 174.24 414.444 172.896 410.412 172.896C406.332 172.896 403.068 174.216 400.62 176.856C398.22 179.496 397.02 183.072 397.02 187.584ZM462.546 162.456V192.696C462.546 195.72 463.29 198.048 464.778 199.68C466.266 201.312 468.45 202.128 471.33 202.128C474.21 202.128 476.418 201.312 477.954 199.68C479.49 198.048 480.258 195.72 480.258 192.696V162.456H492.57V192.624C492.57 197.136 491.61 200.952 489.69 204.072C487.77 207.192 485.178 209.544 481.914 211.128C478.698 212.712 475.098 213.504 471.114 213.504C467.13 213.504 463.554 212.736 460.386 211.2C457.266 209.616 454.794 207.264 452.97 204.144C451.146 200.976 450.234 197.136 450.234 192.624V162.456H462.546ZM539.88 204.072H521.016L517.992 213H505.104L523.392 162.456H537.648L555.936 213H542.904L539.88 204.072ZM536.712 194.568L530.448 176.064L524.256 194.568H536.712ZM587.637 162.456C592.965 162.456 597.621 163.512 601.605 165.624C605.589 167.736 608.661 170.712 610.821 174.552C613.029 178.344 614.133 182.736 614.133 187.728C614.133 192.672 613.029 197.064 610.821 200.904C608.661 204.744 605.565 207.72 601.533 209.832C597.549 211.944 592.917 213 587.637 213H568.701V162.456H587.637ZM586.845 202.344C591.501 202.344 595.125 201.072 597.717 198.528C600.309 195.984 601.605 192.384 601.605 187.728C601.605 183.072 600.309 179.448 597.717 176.856C595.125 174.264 591.501 172.968 586.845 172.968H581.013V202.344H586.845ZM646.502 213.504C642.806 213.504 639.494 212.904 636.566 211.704C633.638 210.504 631.286 208.728 629.51 206.376C627.782 204.024 626.87 201.192 626.774 197.88H639.878C640.07 199.752 640.718 201.192 641.822 202.2C642.926 203.16 644.366 203.64 646.142 203.64C647.966 203.64 649.406 203.232 650.462 202.416C651.518 201.552 652.046 200.376 652.046 198.888C652.046 197.64 651.614 196.608 650.75 195.792C649.934 194.976 648.902 194.304 647.654 193.776C646.454 193.248 644.726 192.648 642.47 191.976C639.206 190.968 636.542 189.96 634.478 188.952C632.414 187.944 630.638 186.456 629.15 184.488C627.662 182.52 626.918 179.952 626.918 176.784C626.918 172.08 628.622 168.408 632.03 165.768C635.438 163.08 639.878 161.736 645.35 161.736C650.918 161.736 655.406 163.08 658.814 165.768C662.222 168.408 664.046 172.104 664.286 176.856H650.966C650.87 175.224 650.27 173.952 649.166 173.04C648.062 172.08 646.646 171.6 644.918 171.6C643.43 171.6 642.23 172.008 641.318 172.824C640.406 173.592 639.95 174.72 639.95 176.208C639.95 177.84 640.718 179.112 642.254 180.024C643.79 180.936 646.19 181.92 649.454 182.976C652.718 184.08 655.358 185.136 657.374 186.144C659.438 187.152 661.214 188.616 662.702 190.536C664.19 192.456 664.934 194.928 664.934 197.952C664.934 200.832 664.19 203.448 662.702 205.8C661.262 208.152 659.15 210.024 656.366 211.416C653.582 212.808 650.294 213.504 646.502 213.504Z" fill="#2A2A2A"/>
<path d="M458.23 245.152C460.006 245.152 461.558 245.504 462.886 246.208C464.214 246.912 465.238 247.904 465.958 249.184C466.694 250.448 467.062 251.912 467.062 253.576C467.062 255.224 466.694 256.688 465.958 257.968C465.238 259.248 464.206 260.24 462.862 260.944C461.534 261.648 459.99 262 458.23 262H451.918V245.152H458.23ZM457.966 258.448C459.518 258.448 460.726 258.024 461.59 257.176C462.454 256.328 462.886 255.128 462.886 253.576C462.886 252.024 462.454 250.816 461.59 249.952C460.726 249.088 459.518 248.656 457.966 248.656H456.022V258.448H457.966ZM481.979 255.088C481.979 255.472 481.955 255.872 481.907 256.288H472.619C472.683 257.12 472.947 257.76 473.411 258.208C473.891 258.64 474.475 258.856 475.163 258.856C476.187 258.856 476.899 258.424 477.299 257.56H481.667C481.443 258.44 481.035 259.232 480.443 259.936C479.867 260.64 479.139 261.192 478.259 261.592C477.379 261.992 476.395 262.192 475.307 262.192C473.995 262.192 472.827 261.912 471.803 261.352C470.779 260.792 469.979 259.992 469.403 258.952C468.827 257.912 468.539 256.696 468.539 255.304C468.539 253.912 468.819 252.696 469.379 251.656C469.955 250.616 470.755 249.816 471.779 249.256C472.803 248.696 473.979 248.416 475.307 248.416C476.603 248.416 477.755 248.688 478.763 249.232C479.771 249.776 480.555 250.552 481.115 251.56C481.691 252.568 481.979 253.744 481.979 255.088ZM477.779 254.008C477.779 253.304 477.539 252.744 477.059 252.328C476.579 251.912 475.979 251.704 475.259 251.704C474.571 251.704 473.987 251.904 473.507 252.304C473.043 252.704 472.755 253.272 472.643 254.008H477.779ZM507.797 255.28C507.797 253.904 508.053 252.696 508.565 251.656C509.093 250.616 509.805 249.816 510.701 249.256C511.597 248.696 512.597 248.416 513.701 248.416C514.645 248.416 515.469 248.608 516.173 248.992C516.893 249.376 517.445 249.88 517.829 250.504V248.608H521.933V262H517.829V260.104C517.429 260.728 516.869 261.232 516.149 261.616C515.445 262 514.621 262.192 513.677 262.192C512.589 262.192 511.597 261.912 510.701 261.352C509.805 260.776 509.093 259.968 508.565 258.928C508.053 257.872 507.797 256.656 507.797 255.28ZM517.829 255.304C517.829 254.28 517.541 253.472 516.965 252.88C516.405 252.288 515.717 251.992 514.901 251.992C514.085 251.992 513.389 252.288 512.813 252.88C512.253 253.456 511.973 254.256 511.973 255.28C511.973 256.304 512.253 257.12 512.813 257.728C513.389 258.32 514.085 258.616 514.901 258.616C515.717 258.616 516.405 258.32 516.965 257.728C517.541 257.136 517.829 256.328 517.829 255.304ZM546.205 262.192C545.485 262.192 544.893 261.984 544.429 261.568C543.981 261.136 543.757 260.608 543.757 259.984C543.757 259.344 543.981 258.808 544.429 258.376C544.893 257.944 545.485 257.728 546.205 257.728C546.909 257.728 547.485 257.944 547.933 258.376C548.397 258.808 548.629 259.344 548.629 259.984C548.629 260.608 548.397 261.136 547.933 261.568C547.485 261.984 546.909 262.192 546.205 262.192Z" fill="#2A2A2A" fill-opacity="0.5"/>
<path d="M492.974 258.64H500.222L499.622 262H487.718L488.27 258.88L497.294 248.512H490.094L490.694 245.152H502.598L502.046 248.272L492.974 258.64ZM533.732 258.64H540.98L540.38 262H528.476L529.028 258.88L538.052 248.512H530.852L531.452 245.152H543.356L542.804 248.272L533.732 258.64Z" fill="#6E58DF"/>
<defs>
<clipPath id="clip0">
<rect width="413" height="285" fill="white" transform="matrix(-1 0 0 1 706 330)"/>
</clipPath>
</defs>
</svg>
