<svg width="84" height="16" viewBox="0 0 84 16" fill="none" xmlns="http://www.w3.org/2000/svg">
<path d="M4.38028 10.48H9.81628V13H0.888281V10.66L6.28828 2.884H0.888281V0.364H9.81628V2.704L4.38028 10.48Z" fill="#6E58DF"/>
<path d="M22.6269 15.16L21.0069 12.982C20.5269 13.078 20.0589 13.126 19.6029 13.126C18.4149 13.126 17.3229 12.85 16.3269 12.298C15.3429 11.746 14.5569 10.978 13.9689 9.994C13.3929 8.998 13.1049 7.882 13.1049 6.646C13.1049 5.41 13.3929 4.3 13.9689 3.316C14.5569 2.332 15.3429 1.564 16.3269 1.012C17.3229 0.46 18.4149 0.184 19.6029 0.184C20.7909 0.184 21.8769 0.46 22.8609 1.012C23.8569 1.564 24.6369 2.332 25.2009 3.316C25.7769 4.3 26.0649 5.41 26.0649 6.646C26.0649 7.726 25.8429 8.716 25.3989 9.616C24.9669 10.504 24.3609 11.242 23.5809 11.83L26.3529 15.16H22.6269ZM16.2549 6.646C16.2549 7.762 16.5549 8.656 17.1549 9.328C17.7669 9.988 18.5829 10.318 19.6029 10.318C20.6109 10.318 21.4149 9.982 22.0149 9.31C22.6269 8.638 22.9329 7.75 22.9329 6.646C22.9329 5.53 22.6269 4.642 22.0149 3.982C21.4149 3.31 20.6109 2.974 19.6029 2.974C18.5829 2.974 17.7669 3.304 17.1549 3.964C16.5549 4.624 16.2549 5.518 16.2549 6.646ZM32.6365 0.364V7.924C32.6365 8.68 32.8225 9.262 33.1945 9.67C33.5665 10.078 34.1125 10.282 34.8325 10.282C35.5525 10.282 36.1045 10.078 36.4885 9.67C36.8725 9.262 37.0645 8.68 37.0645 7.924V0.364H40.1425V7.906C40.1425 9.034 39.9025 9.988 39.4225 10.768C38.9425 11.548 38.2945 12.136 37.4785 12.532C36.6745 12.928 35.7745 13.126 34.7785 13.126C33.7825 13.126 32.8885 12.934 32.0965 12.55C31.3165 12.154 30.6985 11.566 30.2425 10.786C29.7865 9.994 29.5585 9.034 29.5585 7.906V0.364H32.6365ZM51.9699 10.768H47.2539L46.4979 13H43.2759L47.8479 0.364H51.4119L55.9839 13H52.7259L51.9699 10.768ZM51.1779 8.392L49.6119 3.766L48.0639 8.392H51.1779ZM63.9094 0.364C65.2414 0.364 66.4054 0.627999 67.4014 1.156C68.3974 1.684 69.1654 2.428 69.7054 3.388C70.2574 4.336 70.5334 5.434 70.5334 6.682C70.5334 7.918 70.2574 9.016 69.7054 9.976C69.1654 10.936 68.3914 11.68 67.3834 12.208C66.3874 12.736 65.2294 13 63.9094 13H59.1754V0.364H63.9094ZM63.7114 10.336C64.8754 10.336 65.7814 10.018 66.4294 9.382C67.0774 8.746 67.4014 7.846 67.4014 6.682C67.4014 5.518 67.0774 4.612 66.4294 3.964C65.7814 3.316 64.8754 2.992 63.7114 2.992H62.2534V10.336H63.7114ZM78.6255 13.126C77.7015 13.126 76.8735 12.976 76.1415 12.676C75.4095 12.376 74.8215 11.932 74.3775 11.344C73.9455 10.756 73.7175 10.048 73.6935 9.22H76.9695C77.0175 9.688 77.1795 10.048 77.4555 10.3C77.7315 10.54 78.0915 10.66 78.5355 10.66C78.9915 10.66 79.3515 10.558 79.6155 10.354C79.8795 10.138 80.0115 9.844 80.0115 9.472C80.0115 9.16 79.9035 8.902 79.6875 8.698C79.4835 8.494 79.2255 8.326 78.9135 8.194C78.6135 8.062 78.1815 7.912 77.6175 7.744C76.8015 7.492 76.1355 7.24 75.6195 6.988C75.1035 6.736 74.6595 6.364 74.2875 5.872C73.9155 5.38 73.7295 4.738 73.7295 3.946C73.7295 2.77 74.1555 1.852 75.0075 1.192C75.8595 0.52 76.9695 0.184 78.3375 0.184C79.7295 0.184 80.8515 0.52 81.7035 1.192C82.5555 1.852 83.0115 2.776 83.0715 3.964H79.7415C79.7175 3.556 79.5675 3.238 79.2915 3.01C79.0155 2.77 78.6615 2.65 78.2295 2.65C77.8575 2.65 77.5575 2.752 77.3295 2.956C77.1015 3.148 76.9875 3.43 76.9875 3.802C76.9875 4.21 77.1795 4.528 77.5635 4.756C77.9475 4.984 78.5475 5.23 79.3635 5.494C80.1795 5.77 80.8395 6.034 81.3435 6.286C81.8595 6.538 82.3035 6.904 82.6755 7.384C83.0475 7.864 83.2335 8.482 83.2335 9.238C83.2335 9.958 83.0475 10.612 82.6755 11.2C82.3155 11.788 81.7875 12.256 81.0915 12.604C80.3955 12.952 79.5735 13.126 78.6255 13.126Z" fill="#2A2A2A"/>
</svg>
