<svg width="200" height="40" viewBox="0 0 330 61" fill="none" xmlns="http://www.w3.org/2000/svg">
<path d="M14.5211 41.92H36.2651V52H0.553125V42.64L22.1531 11.536H0.553125V1.456H36.2651V10.816L14.5211 41.92Z" fill="#6E58DF"/>
<path d="M87.5077 60.64L81.0277 51.928C79.1077 52.312 77.2357 52.504 75.4117 52.504C70.6597 52.504 66.2917 51.4 62.3077 49.192C58.3717 46.984 55.2277 43.912 52.8757 39.976C50.5717 35.992 49.4197 31.528 49.4197 26.584C49.4197 21.64 50.5717 17.2 52.8757 13.264C55.2277 9.328 58.3717 6.256 62.3077 4.048C66.2917 1.84 70.6597 0.735999 75.4117 0.735999C80.1637 0.735999 84.5077 1.84 88.4438 4.048C92.4278 6.256 95.5478 9.328 97.8038 13.264C100.108 17.2 101.26 21.64 101.26 26.584C101.26 30.904 100.372 34.864 98.5957 38.464C96.8677 42.016 94.4437 44.968 91.3237 47.32L102.412 60.64H87.5077ZM62.0197 26.584C62.0197 31.048 63.2197 34.624 65.6197 37.312C68.0677 39.952 71.3317 41.272 75.4117 41.272C79.4437 41.272 82.6597 39.928 85.0597 37.24C87.5077 34.552 88.7318 31 88.7318 26.584C88.7318 22.12 87.5077 18.568 85.0597 15.928C82.6597 13.24 79.4437 11.896 75.4117 11.896C71.3317 11.896 68.0677 13.216 65.6197 15.856C63.2197 18.496 62.0197 22.072 62.0197 26.584ZM127.546 1.456V31.696C127.546 34.72 128.29 37.048 129.778 38.68C131.266 40.312 133.45 41.128 136.33 41.128C139.21 41.128 141.418 40.312 142.954 38.68C144.49 37.048 145.258 34.72 145.258 31.696V1.456H157.57V31.624C157.57 36.136 156.61 39.952 154.69 43.072C152.77 46.192 150.178 48.544 146.914 50.128C143.698 51.712 140.098 52.504 136.114 52.504C132.13 52.504 128.554 51.736 125.386 50.2C122.266 48.616 119.794 46.264 117.97 43.144C116.146 39.976 115.234 36.136 115.234 31.624V1.456H127.546ZM204.88 43.072H186.016L182.992 52H170.104L188.392 1.456H202.648L220.936 52H207.904L204.88 43.072ZM201.712 33.568L195.448 15.064L189.256 33.568H201.712ZM252.637 1.456C257.965 1.456 262.621 2.512 266.605 4.624C270.589 6.736 273.661 9.712 275.821 13.552C278.029 17.344 279.133 21.736 279.133 26.728C279.133 31.672 278.029 36.064 275.821 39.904C273.661 43.744 270.565 46.72 266.533 48.832C262.549 50.944 257.917 52 252.637 52H233.701V1.456H252.637ZM251.845 41.344C256.501 41.344 260.125 40.072 262.717 37.528C265.309 34.984 266.605 31.384 266.605 26.728C266.605 22.072 265.309 18.448 262.717 15.856C260.125 13.264 256.501 11.968 251.845 11.968H246.013V41.344H251.845ZM311.502 52.504C307.806 52.504 304.494 51.904 301.566 50.704C298.638 49.504 296.286 47.728 294.51 45.376C292.782 43.024 291.87 40.192 291.774 36.88H304.878C305.07 38.752 305.718 40.192 306.822 41.2C307.926 42.16 309.366 42.64 311.142 42.64C312.966 42.64 314.406 42.232 315.462 41.416C316.518 40.552 317.046 39.376 317.046 37.888C317.046 36.64 316.614 35.608 315.75 34.792C314.934 33.976 313.902 33.304 312.654 32.776C311.454 32.248 309.726 31.648 307.47 30.976C304.206 29.968 301.542 28.96 299.478 27.952C297.414 26.944 295.638 25.456 294.15 23.488C292.662 21.52 291.918 18.952 291.918 15.784C291.918 11.08 293.622 7.408 297.03 4.768C300.438 2.08 304.878 0.735999 310.35 0.735999C315.918 0.735999 320.406 2.08 323.814 4.768C327.222 7.408 329.046 11.104 329.286 15.856H315.966C315.87 14.224 315.27 12.952 314.166 12.04C313.062 11.08 311.646 10.6 309.918 10.6C308.43 10.6 307.23 11.008 306.318 11.824C305.406 12.592 304.95 13.72 304.95 15.208C304.95 16.84 305.718 18.112 307.254 19.024C308.79 19.936 311.19 20.92 314.454 21.976C317.718 23.08 320.358 24.136 322.374 25.144C324.438 26.152 326.214 27.616 327.702 29.536C329.19 31.456 329.934 33.928 329.934 36.952C329.934 39.832 329.19 42.448 327.702 44.8C326.262 47.152 324.15 49.024 321.366 50.416C318.582 51.808 315.294 52.504 311.502 52.504Z" fill="#2A2A2A"/>
</svg>
